<svg xmlns="http://www.w3.org/2000/svg" viewBox="0 0 48 48" width="48" height="48" role="img" aria-label="Radiology Save icon">
<g fill="#155EAB">
  <rect x="1" y="1" width="21" height="21" rx="6"/>
  <rect x="26" y="1" width="21" height="21" rx="6"/>
  <rect x="1" y="26" width="21" height="21" rx="6"/>
</g>
<path fill-rule="evenodd" fill="#1E9E62" d="M26 32 a6 6 0 0 1 6-6 h9 a6 6 0 0 1 6 6 v9 a6 6 0 0 1 -6 6 h-9 a6 6 0 0 1 -6-6 Z M36.5 30.2 A6.3 6.3 0 1 0 36.5 42.8 A6.3 6.3 0 1 0 36.5 30.2 Z"/>
</svg>