<svg xmlns="http://www.w3.org/2000/svg" viewBox="0 0 283 48" width="283" height="48" role="img" aria-label="Radiology Save logo">
<g fill="#5B9BD9">
  <rect x="1" y="1" width="21" height="21" rx="6"/>
  <rect x="26" y="1" width="21" height="21" rx="6"/>
  <rect x="1" y="26" width="21" height="21" rx="6"/>
</g>
<path fill-rule="evenodd" fill="#3FBF87" d="M26 32 a6 6 0 0 1 6-6 h9 a6 6 0 0 1 6 6 v9 a6 6 0 0 1 -6 6 h-9 a6 6 0 0 1 -6-6 Z M36.5 30.2 A6.3 6.3 0 1 0 36.5 42.8 A6.3 6.3 0 1 0 36.5 30.2 Z"/>
<g transform="translate(62,33)"><path fill="#F1F5F9" d="M2.63671875 0.0V-21.826171875H10.107421875Q12.65625 -21.826171875 14.30419921875 -20.95458984375Q15.9521484375 -20.0830078125 16.75048828125 -18.5595703125Q17.548828125 -17.0361328125 17.548828125 -15.087890625Q17.548828125 -13.1396484375 16.75048828125 -11.6455078125Q15.9521484375 -10.1513671875 14.3115234375 -9.30908203125Q12.6708984375 -8.466796875 10.1220703125 -8.466796875H4.189453125V-10.9423828125H9.990234375Q11.71875 -10.9423828125 12.76611328125 -11.44775390625Q13.8134765625 -11.953125 14.296875 -12.88330078125Q14.7802734375 -13.8134765625 14.7802734375 -15.087890625Q14.7802734375 -16.3916015625 14.296875 -17.35107421875Q13.8134765625 -18.310546875 12.7587890625 -18.84521484375Q11.7041015625 -19.3798828125 9.9609375 -19.3798828125H5.419921875V0.0ZM15.17578125 0.0 9.90234375 -9.8291015625H13.037109375L18.3984375 0.0Z M26.2060546875 0.380859375Q24.6533203125 0.380859375 23.38623046875 -0.205078125Q22.119140625 -0.791015625 21.3720703125 -1.9189453125Q20.625 -3.046875 20.625 -4.658203125Q20.625 -6.064453125 21.181640625 -6.943359375Q21.73828125 -7.822265625 22.66845703125 -8.32763671875Q23.5986328125 -8.8330078125 24.7265625 -9.08203125Q25.8544921875 -9.3310546875 26.9970703125 -9.4775390625Q28.4619140625 -9.66796875 29.384765625 -9.7705078125Q30.3076171875 -9.873046875 30.75439453125 -10.1220703125Q31.201171875 -10.37109375 31.201171875 -10.9716796875V-11.0595703125Q31.201171875 -12.0849609375 30.8203125 -12.79541015625Q30.439453125 -13.505859375 29.677734375 -13.88671875Q28.916015625 -14.267578125 27.7734375 -14.267578125Q26.6015625 -14.267578125 25.7666015625 -13.9013671875Q24.931640625 -13.53515625 24.41162109375 -12.98583984375Q23.8916015625 -12.4365234375 23.6279296875 -11.865234375L21.09375 -12.7001953125Q21.7236328125 -14.1943359375 22.79296875 -15.03662109375Q23.8623046875 -15.87890625 25.1513671875 -16.23046875Q26.4404296875 -16.58203125 27.7001953125 -16.58203125Q28.5205078125 -16.58203125 29.56787109375 -16.38427734375Q30.615234375 -16.1865234375 31.58935546875 -15.6005859375Q32.5634765625 -15.0146484375 33.20068359375 -13.86474609375Q33.837890625 -12.71484375 33.837890625 -10.7958984375V0.0H31.2451171875V-2.2265625H31.0693359375Q30.791015625 -1.6552734375 30.17578125 -1.04736328125Q29.560546875 -0.439453125 28.5791015625 -0.029296875Q27.59765625 0.380859375 26.2060546875 0.380859375ZM26.66015625 -1.9482421875Q28.125 -1.9482421875 29.1357421875 -2.51953125Q30.146484375 -3.0908203125 30.673828125 -4.00634765625Q31.201171875 -4.921875 31.201171875 -5.91796875V-8.1884765625Q31.0400390625 -7.998046875 30.498046875 -7.84423828125Q29.9560546875 -7.6904296875 29.26025390625 -7.5732421875Q28.564453125 -7.4560546875 27.91259765625 -7.37548828125Q27.2607421875 -7.294921875 26.8798828125 -7.2509765625Q25.927734375 -7.1337890625 25.10009765625 -6.84814453125Q24.2724609375 -6.5625 23.7744140625 -6.01318359375Q23.2763671875 -5.4638671875 23.2763671875 -4.5263671875Q23.2763671875 -3.6767578125 23.7158203125 -3.10546875Q24.1552734375 -2.5341796875 24.9169921875 -2.2412109375Q25.6787109375 -1.9482421875 26.66015625 -1.9482421875Z M44.6044921875 0.3515625Q42.568359375 0.3515625 41.0009765625 -0.6884765625Q39.43359375 -1.728515625 38.5546875 -3.6328125Q37.67578125 -5.537109375 37.67578125 -8.14453125Q37.67578125 -10.7373046875 38.56201171875 -12.63427734375Q39.4482421875 -14.53125 41.015625 -15.556640625Q42.5830078125 -16.58203125 44.619140625 -16.58203125Q46.2158203125 -16.58203125 47.1533203125 -16.0546875Q48.0908203125 -15.52734375 48.59619140625 -14.86083984375Q49.1015625 -14.1943359375 49.365234375 -13.7548828125H49.5703125V-21.826171875H52.20703125V0.0H49.658203125V-2.5341796875H49.365234375Q49.1015625 -2.080078125 48.58154296875 -1.39892578125Q48.0615234375 -0.7177734375 47.11669921875 -0.18310546875Q46.171875 0.3515625 44.6044921875 0.3515625ZM45.0 -2.0068359375Q46.494140625 -2.0068359375 47.51953125 -2.79052734375Q48.544921875 -3.57421875 49.072265625 -4.9658203125Q49.599609375 -6.357421875 49.599609375 -8.173828125Q49.599609375 -9.990234375 49.07958984375 -11.34521484375Q48.5595703125 -12.7001953125 47.5341796875 -13.4619140625Q46.5087890625 -14.2236328125 45.0 -14.2236328125Q43.447265625 -14.2236328125 42.41455078125 -13.41796875Q41.3818359375 -12.6123046875 40.869140625 -11.24267578125Q40.3564453125 -9.873046875 40.3564453125 -8.173828125Q40.3564453125 -6.4599609375 40.87646484375 -5.06103515625Q41.396484375 -3.662109375 42.4365234375 -2.83447265625Q43.4765625 -2.0068359375 45.0 -2.0068359375Z M56.8359375 0.0V-16.376953125H59.47265625V0.0ZM58.1689453125 -19.0576171875Q57.421875 -19.0576171875 56.8798828125 -19.5703125Q56.337890625 -20.0830078125 56.337890625 -20.80078125Q56.337890625 -21.533203125 56.8798828125 -22.03857421875Q57.421875 -22.5439453125 58.1689453125 -22.5439453125Q58.9306640625 -22.5439453125 59.47265625 -22.03857421875Q60.0146484375 -21.533203125 60.0146484375 -20.80078125Q60.0146484375 -20.0830078125 59.47265625 -19.5703125Q58.9306640625 -19.0576171875 58.1689453125 -19.0576171875Z M70.7666015625 0.3515625Q68.5400390625 0.3515625 66.86279296875 -0.703125Q65.185546875 -1.7578125 64.248046875 -3.662109375Q63.310546875 -5.56640625 63.310546875 -8.0859375Q63.310546875 -10.6494140625 64.248046875 -12.56103515625Q65.185546875 -14.47265625 66.86279296875 -15.52734375Q68.5400390625 -16.58203125 70.7666015625 -16.58203125Q73.0078125 -16.58203125 74.6923828125 -15.52734375Q76.376953125 -14.47265625 77.314453125 -12.56103515625Q78.251953125 -10.6494140625 78.251953125 -8.0859375Q78.251953125 -5.56640625 77.314453125 -3.662109375Q76.376953125 -1.7578125 74.6923828125 -0.703125Q73.0078125 0.3515625 70.7666015625 0.3515625ZM70.7666015625 -2.0068359375Q72.421875 -2.0068359375 73.4912109375 -2.8564453125Q74.560546875 -3.7060546875 75.0732421875 -5.09033203125Q75.5859375 -6.474609375 75.5859375 -8.0859375Q75.5859375 -9.7119140625 75.0732421875 -11.11083984375Q74.560546875 -12.509765625 73.4912109375 -13.36669921875Q72.421875 -14.2236328125 70.7666015625 -14.2236328125Q69.1259765625 -14.2236328125 68.0712890625 -13.36669921875Q67.0166015625 -12.509765625 66.50390625 -11.1181640625Q65.9912109375 -9.7265625 65.9912109375 -8.0859375Q65.9912109375 -6.474609375 66.50390625 -5.09033203125Q67.0166015625 -3.7060546875 68.0712890625 -2.8564453125Q69.1259765625 -2.0068359375 70.7666015625 -2.0068359375Z M84.7265625 -21.826171875V0.0H82.08984375V-21.826171875Z M96.0205078125 0.3515625Q93.7939453125 0.3515625 92.11669921875 -0.703125Q90.439453125 -1.7578125 89.501953125 -3.662109375Q88.564453125 -5.56640625 88.564453125 -8.0859375Q88.564453125 -10.6494140625 89.501953125 -12.56103515625Q90.439453125 -14.47265625 92.11669921875 -15.52734375Q93.7939453125 -16.58203125 96.0205078125 -16.58203125Q98.26171875 -16.58203125 99.9462890625 -15.52734375Q101.630859375 -14.47265625 102.568359375 -12.56103515625Q103.505859375 -10.6494140625 103.505859375 -8.0859375Q103.505859375 -5.56640625 102.568359375 -3.662109375Q101.630859375 -1.7578125 99.9462890625 -0.703125Q98.26171875 0.3515625 96.0205078125 0.3515625ZM96.0205078125 -2.0068359375Q97.67578125 -2.0068359375 98.7451171875 -2.8564453125Q99.814453125 -3.7060546875 100.3271484375 -5.09033203125Q100.83984375 -6.474609375 100.83984375 -8.0859375Q100.83984375 -9.7119140625 100.3271484375 -11.11083984375Q99.814453125 -12.509765625 98.7451171875 -13.36669921875Q97.67578125 -14.2236328125 96.0205078125 -14.2236328125Q94.3798828125 -14.2236328125 93.3251953125 -13.36669921875Q92.2705078125 -12.509765625 91.7578125 -11.1181640625Q91.2451171875 -9.7265625 91.2451171875 -8.0859375Q91.2451171875 -6.474609375 91.7578125 -5.09033203125Q92.2705078125 -3.7060546875 93.3251953125 -2.8564453125Q94.3798828125 -2.0068359375 96.0205078125 -2.0068359375Z M113.9794921875 6.474609375Q112.1630859375 6.474609375 110.83740234375 6.01318359375Q109.51171875 5.5517578125 108.6328125 4.7900390625Q107.75390625 4.0283203125 107.2412109375 3.134765625L109.3798828125 1.7578125Q109.7314453125 2.2265625 110.25146484375 2.7978515625Q110.771484375 3.369140625 111.65771484375 3.77197265625Q112.5439453125 4.1748046875 113.9794921875 4.1748046875Q115.9423828125 4.1748046875 117.20947265625 3.2373046875Q118.4765625 2.2998046875 118.4765625 0.2783203125V-3.0029296875H118.2275390625Q117.94921875 -2.5341796875 117.44384765625 -1.8896484375Q116.9384765625 -1.2451171875 115.99365234375 -0.75439453125Q115.048828125 -0.263671875 113.466796875 -0.263671875Q111.50390625 -0.263671875 109.9365234375 -1.19384765625Q108.369140625 -2.1240234375 107.4609375 -3.9111328125Q106.552734375 -5.6982421875 106.552734375 -8.26171875Q106.552734375 -10.7958984375 107.4462890625 -12.66357421875Q108.33984375 -14.53125 109.91455078125 -15.556640625Q111.4892578125 -16.58203125 113.525390625 -16.58203125Q115.107421875 -16.58203125 116.05224609375 -16.06201171875Q116.9970703125 -15.5419921875 117.509765625 -14.8681640625Q118.0224609375 -14.1943359375 118.30078125 -13.7548828125H118.5498046875V-16.376953125H121.11328125V0.4248046875Q121.11328125 2.5341796875 120.1611328125 3.87451171875Q119.208984375 5.21484375 117.59033203125 5.8447265625Q115.9716796875 6.474609375 113.9794921875 6.474609375ZM113.90625 -2.607421875Q115.400390625 -2.607421875 116.42578125 -3.28857421875Q117.451171875 -3.9697265625 117.978515625 -5.25146484375Q118.505859375 -6.533203125 118.505859375 -8.3203125Q118.505859375 -10.0634765625 117.98583984375 -11.38916015625Q117.4658203125 -12.71484375 116.4404296875 -13.46923828125Q115.4150390625 -14.2236328125 113.90625 -14.2236328125Q112.353515625 -14.2236328125 111.3134765625 -13.42529296875Q110.2734375 -12.626953125 109.75341796875 -11.2939453125Q109.2333984375 -9.9609375 109.2333984375 -8.3203125Q109.2333984375 -6.6357421875 109.7607421875 -5.3466796875Q110.2880859375 -4.0576171875 111.328125 -3.33251953125Q112.3681640625 -2.607421875 113.90625 -2.607421875Z M125.478515625 5.9326171875 126.15234375 3.6474609375 126.4306640625 3.720703125Q127.236328125 3.92578125 127.8955078125 3.83056640625Q128.5546875 3.7353515625 129.08203125 3.1787109375Q129.609375 2.6220703125 130.0048828125 1.4501953125L130.4736328125 0.087890625L124.21875 -16.376953125H127.1044921875L130.5908203125 -6.6650390625Q131.1474609375 -5.1416015625 131.5283203125 -3.6474609375Q131.9091796875 -2.1533203125 132.333984375 -0.7470703125H131.3671875Q131.7919921875 -2.1533203125 132.18017578125 -3.65478515625Q132.568359375 -5.15625 133.1103515625 -6.6650390625L136.6259765625 -16.376953125H139.4970703125L132.3046875 2.4462890625Q131.806640625 3.75 131.11083984375 4.59228515625Q130.4150390625 5.4345703125 129.4921875 5.83740234375Q128.5693359375 6.240234375 127.412109375 6.240234375Q126.708984375 6.240234375 126.1962890625 6.1376953125Q125.68359375 6.03515625 125.478515625 5.9326171875Z"/></g>
<g transform="translate(210.7,33)"><path fill="#3FBF87" d="M9.6240234375 0.380859375Q7.265625 0.380859375 5.52978515625 -0.380859375Q3.7939453125 -1.142578125 2.8125 -2.51220703125Q1.8310546875 -3.8818359375 1.69921875 -5.712890625H4.5556640625Q4.6728515625 -4.482421875 5.390625 -3.68408203125Q6.1083984375 -2.8857421875 7.22900390625 -2.49755859375Q8.349609375 -2.109375 9.6240234375 -2.109375Q11.103515625 -2.109375 12.28271484375 -2.5927734375Q13.4619140625 -3.076171875 14.150390625 -3.955078125Q14.8388671875 -4.833984375 14.8388671875 -5.9912109375Q14.8388671875 -7.0458984375 14.24560546875 -7.705078125Q13.65234375 -8.3642578125 12.6708984375 -8.7890625Q11.689453125 -9.2138671875 10.517578125 -9.5361328125L7.880859375 -10.283203125Q5.244140625 -11.0302734375 3.779296875 -12.421875Q2.314453125 -13.8134765625 2.314453125 -15.9814453125Q2.314453125 -17.8271484375 3.310546875 -19.21142578125Q4.306640625 -20.595703125 6.005859375 -21.357421875Q7.705078125 -22.119140625 9.814453125 -22.119140625Q11.9677734375 -22.119140625 13.623046875 -21.357421875Q15.2783203125 -20.595703125 16.23779296875 -19.28466796875Q17.197265625 -17.9736328125 17.255859375 -16.318359375H14.53125Q14.3408203125 -17.9150390625 13.0078125 -18.78662109375Q11.6748046875 -19.658203125 9.7265625 -19.658203125Q8.3203125 -19.658203125 7.25830078125 -19.19677734375Q6.1962890625 -18.7353515625 5.6103515625 -17.93701171875Q5.0244140625 -17.138671875 5.0244140625 -16.11328125Q5.0244140625 -14.970703125 5.73486328125 -14.27490234375Q6.4453125 -13.5791015625 7.41943359375 -13.19091796875Q8.3935546875 -12.802734375 9.1845703125 -12.5830078125L11.3671875 -11.982421875Q12.24609375 -11.748046875 13.30810546875 -11.337890625Q14.3701171875 -10.927734375 15.3369140625 -10.24658203125Q16.3037109375 -9.5654296875 16.92626953125 -8.51806640625Q17.548828125 -7.470703125 17.548828125 -5.947265625Q17.548828125 -4.16015625 16.61865234375 -2.724609375Q15.6884765625 -1.2890625 13.916015625 -0.4541015625Q12.1435546875 0.380859375 9.6240234375 0.380859375Z M26.1474609375 0.380859375Q24.5947265625 0.380859375 23.32763671875 -0.205078125Q22.060546875 -0.791015625 21.3134765625 -1.9189453125Q20.56640625 -3.046875 20.56640625 -4.658203125Q20.56640625 -6.064453125 21.123046875 -6.943359375Q21.6796875 -7.822265625 22.60986328125 -8.32763671875Q23.5400390625 -8.8330078125 24.66796875 -9.08203125Q25.7958984375 -9.3310546875 26.9384765625 -9.4775390625Q28.4033203125 -9.66796875 29.326171875 -9.7705078125Q30.2490234375 -9.873046875 30.69580078125 -10.1220703125Q31.142578125 -10.37109375 31.142578125 -10.9716796875V-11.0595703125Q31.142578125 -12.0849609375 30.76171875 -12.79541015625Q30.380859375 -13.505859375 29.619140625 -13.88671875Q28.857421875 -14.267578125 27.71484375 -14.267578125Q26.54296875 -14.267578125 25.7080078125 -13.9013671875Q24.873046875 -13.53515625 24.35302734375 -12.98583984375Q23.8330078125 -12.4365234375 23.5693359375 -11.865234375L21.03515625 -12.7001953125Q21.6650390625 -14.1943359375 22.734375 -15.03662109375Q23.8037109375 -15.87890625 25.0927734375 -16.23046875Q26.3818359375 -16.58203125 27.6416015625 -16.58203125Q28.4619140625 -16.58203125 29.50927734375 -16.38427734375Q30.556640625 -16.1865234375 31.53076171875 -15.6005859375Q32.5048828125 -15.0146484375 33.14208984375 -13.86474609375Q33.779296875 -12.71484375 33.779296875 -10.7958984375V0.0H31.1865234375V-2.2265625H31.0107421875Q30.732421875 -1.6552734375 30.1171875 -1.04736328125Q29.501953125 -0.439453125 28.5205078125 -0.029296875Q27.5390625 0.380859375 26.1474609375 0.380859375ZM26.6015625 -1.9482421875Q28.06640625 -1.9482421875 29.0771484375 -2.51953125Q30.087890625 -3.0908203125 30.615234375 -4.00634765625Q31.142578125 -4.921875 31.142578125 -5.91796875V-8.1884765625Q30.9814453125 -7.998046875 30.439453125 -7.84423828125Q29.8974609375 -7.6904296875 29.20166015625 -7.5732421875Q28.505859375 -7.4560546875 27.85400390625 -7.37548828125Q27.2021484375 -7.294921875 26.8212890625 -7.2509765625Q25.869140625 -7.1337890625 25.04150390625 -6.84814453125Q24.2138671875 -6.5625 23.7158203125 -6.01318359375Q23.2177734375 -5.4638671875 23.2177734375 -4.5263671875Q23.2177734375 -3.6767578125 23.6572265625 -3.10546875Q24.0966796875 -2.5341796875 24.8583984375 -2.2412109375Q25.6201171875 -1.9482421875 26.6015625 -1.9482421875Z M43.1396484375 0.0 36.884765625 -16.376953125H39.7705078125L43.2568359375 -6.6650390625Q43.8134765625 -5.15625 44.20166015625 -3.65478515625Q44.58984375 -2.1533203125 45.0146484375 -0.7470703125H44.0478515625Q44.47265625 -2.1533203125 44.86083984375 -3.65478515625Q45.2490234375 -5.15625 45.791015625 -6.6650390625L49.27734375 -16.376953125H52.1630859375L45.908203125 0.0Z M62.1533203125 0.3515625Q59.7802734375 0.3515625 58.05908203125 -0.703125Q56.337890625 -1.7578125 55.40771484375 -3.6474609375Q54.4775390625 -5.537109375 54.4775390625 -8.056640625Q54.4775390625 -10.576171875 55.3857421875 -12.4951171875Q56.2939453125 -14.4140625 57.95654296875 -15.498046875Q59.619140625 -16.58203125 61.845703125 -16.58203125Q63.1494140625 -16.58203125 64.41650390625 -16.14990234375Q65.68359375 -15.7177734375 66.71630859375 -14.75830078125Q67.7490234375 -13.798828125 68.3642578125 -12.2314453125Q68.9794921875 -10.6640625 68.9794921875 -8.3935546875V-7.294921875H56.2646484375V-9.521484375H67.55859375L66.328125 -8.701171875Q66.328125 -10.3125 65.82275390625 -11.56494140625Q65.3173828125 -12.8173828125 64.3212890625 -13.52783203125Q63.3251953125 -14.23828125 61.845703125 -14.23828125Q60.3662109375 -14.23828125 59.3115234375 -13.51318359375Q58.2568359375 -12.7880859375 57.7001953125 -11.62353515625Q57.1435546875 -10.458984375 57.1435546875 -9.1259765625V-7.646484375Q57.1435546875 -5.830078125 57.7734375 -4.56298828125Q58.4033203125 -3.2958984375 59.53857421875 -2.64404296875Q60.673828125 -1.9921875 62.16796875 -1.9921875Q63.134765625 -1.9921875 63.92578125 -2.2705078125Q64.716796875 -2.548828125 65.2880859375 -3.11279296875Q65.859375 -3.6767578125 66.1669921875 -4.51171875L68.7158203125 -3.80859375Q68.3349609375 -2.578125 67.4267578125 -1.640625Q66.5185546875 -0.703125 65.17822265625 -0.17578125Q63.837890625 0.3515625 62.1533203125 0.3515625Z"/></g>
</svg>